<svg width="48" height="47" viewBox="0 0 48 47" xmlns="http://www.w3.org/2000/svg"><title>Github</title><path d="M24 0C10.745 0 0 10.787 0 24.097c0 10.644 6.876 19.675 16.414 22.86 1.2.223 1.64-.52 1.64-1.16 0-.572-.022-2.087-.035-4.097-6.677 1.456-8.086-3.23-8.086-3.23-1.09-2.784-2.664-3.525-2.664-3.525-2.18-1.495.166-1.465.166-1.465 2.407.17 3.675 2.483 3.675 2.483 2.143 3.683 5.618 2.62 6.986 2.002.217-1.557.838-2.62 1.524-3.22-5.33-.61-10.932-2.676-10.932-11.91 0-2.63.934-4.78 2.47-6.465-.247-.61-1.07-3.06.235-6.377 0 0 2.016-.647 6.6 2.47 1.915-.534 3.967-.8 6.008-.81 2.04.01 4.093.276 6.01.81 4.58-3.117 6.593-2.47 6.593-2.47 1.31 3.318.486 5.767.238 6.377 1.54 1.685 2.47 3.835 2.47 6.466 0 9.256-5.613 11.293-10.96 11.89.862.744 1.63 2.213 1.63 4.462 0 3.22-.03 5.82-.03 6.61 0 .644.433 1.394 1.65 1.157C41.13 43.763 48 34.738 48 24.097 48 10.787 37.254 0 24 0" fill="#FFF" fill-rule="evenodd"/></svg>