<svg width="48" height="48" viewBox="0 0 48 48" xmlns="http://www.w3.org/2000/svg"><title>Instagram</title><path d="M42 43.5H6A1.5 1.5 0 0 1 4.5 42V19.5h6c-.782 1.125-1.045 3.224-1.045 4.555 0 8.033 6.55 14.57 14.6 14.57 8.052 0 14.603-6.537 14.603-14.57 0-1.33-.19-3.4-1.158-4.555h6V42a1.5 1.5 0 0 1-1.5 1.5M24.056 14.847c5.098 0 9.23 4.124 9.23 9.208 0 5.087-4.132 9.21-9.23 9.21-5.098 0-9.23-4.123-9.23-9.21 0-5.084 4.132-9.208 9.23-9.208M36 6h4.5A1.5 1.5 0 0 1 42 7.5V12a1.5 1.5 0 0 1-1.5 1.5H36a1.5 1.5 0 0 1-1.5-1.5V7.5A1.5 1.5 0 0 1 36 6m6.294-6H5.706C2.554 0 0 2.55 0 5.692v36.616C0 45.452 2.554 48 5.706 48h36.588C45.446 48 48 45.452 48 42.308V5.692C48 2.55 45.446 0 42.294 0" fill="#FFF" fill-rule="evenodd"/></svg>